{"accessors" : [{"bufferView" : 0, "byteOffset" : 0, "componentType" : 5123, "count" : 240, "type" : "SCALAR", "max" : [206], "min" : [0]}, {"bufferView" : 1, "byteOffset" : 0, "componentType" : 5126, "count" : 207, "type" : "VEC3", "max" : [0.9510578513145447, 1, 0.9999999403953552], "min" : [-0.9510578513145447, -1, -0.9999999403953552], "name" : "POSITION"}, {"bufferView" : 1, "byteOffset" : 12, "componentType" : 5126, "count" : 207, "type" : "VEC3", "max" : [0.9510613083839417, 1.0000044107437134, 1.0000044107437134], "min" : [-0.9510612487792969, -1.0000044107437134, -1.0000044107437134], "name" : "NORMAL"}, {"bufferView" : 1, "byteOffset" : 24, "componentType" : 5126, "count" : 207, "type" : "VEC2", "max" : [1, 1], "min" : [0, 0.5276179909706116], "name" : "TEXCOORD_0"}, {"bufferView" : 0, "byteOffset" : 480, "componentType" : 5123, "count" : 144, "type" : "SCALAR", "max" : [124], "min" : [0]}, {"bufferView" : 2, "byteOffset" : 0, "componentType" : 5126, "count" : 125, "type" : "VEC3", "max" : [0.8852372765541077, 1, 1.885157585144043], "min" : [-0.8852377533912659, 0, 0.19410765171051025], "name" : "POSITION"}, {"bufferView" : 2, "byteOffset" : 12, "componentType" : 5126, "count" : 125, "type" : "VEC3", "max" : [0.938713014125824, 1.0000035762786865, 0.9730843901634216], "min" : [-0.9285166263580322, -1.0000044107437134, -0.9697899222373962], "name" : "NORMAL"}, {"bufferView" : 2, "byteOffset" : 24, "componentType" : 5126, "count" : 125, "type" : "VEC2", "max" : [0.9545454978942871, 0.7638089656829834], "min" : [0, 0.5276179909706116], "name" : "TEXCOORD_0"}, {"bufferView" : 0, "byteOffset" : 768, "componentType" : 5123, "count" : 240, "type" : "SCALAR", "max" : [206], "min" : [0]}, {"bufferView" : 3, "byteOffset" : 0, "componentType" : 5126, "count" : 207, "type" : "VEC3", "max" : [0.7816855907440186, 0.13815635442733765, 2.743901252746582], "min" : [-0.7816855907440186, -1.5056672096252441, 1.1000779867172241], "name" : "POSITION"}, {"bufferView" : 3, "byteOffset" : 12, "componentType" : 5126, "count" : 207, "type" : "VEC3", "max" : [0.9510612487792969, 1.0000044107437134, 1.0000044107437134], "min" : [-0.9510611891746521, -1.0000044107437134, -1.0000044107437134], "name" : "NORMAL"}, {"bufferView" : 3, "byteOffset" : 24, "componentType" : 5126, "count" : 207, "type" : "VEC2", "max" : [1, 1], "min" : [0, 0.5276179909706116], "name" : "TEXCOORD_0"}, {"bufferView" : 0, "byteOffset" : 1248, "componentType" : 5123, "count" : 240, "type" : "SCALAR", "max" : [206], "min" : [0]}, {"bufferView" : 4, "byteOffset" : 0, "componentType" : 5126, "count" : 207, "type" : "VEC3", "max" : [0.7816855907440186, 0.13815635442733765, -1.1000779867172241], "min" : [-0.7816855907440186, -1.5056672096252441, -2.743901252746582], "name" : "POSITION"}, {"bufferView" : 4, "byteOffset" : 12, "componentType" : 5126, "count" : 207, "type" : "VEC3", "max" : [0.9510612487792969, 1.0000044107437134, 1.0000044107437134], "min" : [-0.9510611891746521, -1.0000044107437134, -1.0000044107437134], "name" : "NORMAL"}, {"bufferView" : 4, "byteOffset" : 24, "componentType" : 5126, "count" : 207, "type" : "VEC2", "max" : [1, 1], "min" : [0, 0.5276179909706116], "name" : "TEXCOORD_0"}, {"bufferView" : 0, "byteOffset" : 1728, "componentType" : 5123, "count" : 144, "type" : "SCALAR", "max" : [124], "min" : [0]}, {"bufferView" : 5, "byteOffset" : 0, "componentType" : 5126, "count" : 125, "type" : "VEC3", "max" : [0.8852372765541077, 1, -0.19410765171051025], "min" : [-0.8852377533912659, 0, -1.885157585144043], "name" : "POSITION"}, {"bufferView" : 5, "byteOffset" : 12, "componentType" : 5126, "count" : 125, "type" : "VEC3", "max" : [0.938713014125824, 1.0000035762786865, 0.9697898626327515], "min" : [-0.9285166263580322, -1.0000044107437134, -0.9730843901634216], "name" : "NORMAL"}, {"bufferView" : 5, "byteOffset" : 24, "componentType" : 5126, "count" : 125, "type" : "VEC2", "max" : [0.9545454978942871, 0.7638089656829834], "min" : [0, 0.5276179909706116], "name" : "TEXCOORD_0"}], "asset" : {"generator" : "Aspose.3D 22.12", "version" : "2.0"}, "buffers" : [{"uri" : "data:application/octet-stream;base64,", "byteLength" : 34296}], "bufferViews" : [{"buffer" : 0, "byteOffset" : 0, "byteLength" : 2016, "target" : 34963}, {"buffer" : 0, "byteOffset" : 2020, "byteLength" : 7680, "byteStride" : 32, "target" : 34962}, {"buffer" : 0, "byteOffset" : 9704, "byteLength" : 4608, "byteStride" : 32, "target" : 34962}, {"buffer" : 0, "byteOffset" : 14316, "byteLength" : 7680, "byteStride" : 32, "target" : 34962}, {"buffer" : 0, "byteOffset" : 22000, "byteLength" : 7680, "byteStride" : 32, "target" : 34962}, {"buffer" : 0, "byteOffset" : 29684, "byteLength" : 4608, "byteStride" : 32, "target" : 34962}], "meshes" : [{"primitives" : [{"attributes" : {"POSITION" : 1, "NORMAL" : 2, "TEXCOORD_0" : 3}, "indices" : 0, "mode" : 4}]}, {"primitives" : [{"attributes" : {"POSITION" : 5, "NORMAL" : 6, "TEXCOORD_0" : 7}, "indices" : 4, "mode" : 4}]}, {"primitives" : [{"attributes" : {"POSITION" : 9, "NORMAL" : 10, "TEXCOORD_0" : 11}, "indices" : 8, "mode" : 4}]}, {"primitives" : [{"attributes" : {"POSITION" : 13, "NORMAL" : 14, "TEXCOORD_0" : 15}, "indices" : 12, "mode" : 4}]}, {"primitives" : [{"attributes" : {"POSITION" : 17, "NORMAL" : 18, "TEXCOORD_0" : 19}, "indices" : 16, "mode" : 4}]}], "nodes" : [{"matrix" : [1, 0, 0, 0, 0, 1, 0, 0, 0, 0, 1, 0, 0, 1.100000023841858, 0, 1], "mesh" : 0, "name" : "Icosphere"}, {"matrix" : [0.5, 0, 0, 0, 0, 0.5, 0, 0, 0, 0, 0.5, 0, 0, 0, 0, 1], "mesh" : 1, "name" : "Icosphere.001"}, {"matrix" : [0.5, 0, 0, 0, 0, 0.5, 0, 0, 0, 0, 0.5, 0, 0, 1.100000023841858, 0, 1], "mesh" : 2, "name" : "Icosphere.002"}, {"matrix" : [0.5, 0, 0, 0, 0, 0.5, 0, 0, 0, 0, 0.5, 0, 0, 1.100000023841858, 0, 1], "mesh" : 3, "name" : "Icosphere.003"}, {"matrix" : [0.5, 0, 0, 0, 0, 0.5, 0, 0, 0, 0, 0.5, 0, 0, 0, 0, 1], "mesh" : 4, "name" : "Icosphere.004"}], "scene" : 0, "scenes" : [{"nodes" : [0, 1, 2, 3, 4]}]}